<?xml version="1.0" encoding="UTF-8"?>
<svg width="40" height="40" viewBox="0 0 40 40" version="1.1" xmlns="http://www.w3.org/2000/svg">
  <defs>
    <filter id="blur" x="-.20655" y="-.28472" width="1.403" height="1.6944">
      <feGaussianBlur in="SourceAlpha" stdDeviation="2" />
      <feOffset dx="0" dy="2" result="offsetblur" />
      <feComponentTransfer>
        <feFuncA slope="0.05" type="linear" />
      </feComponentTransfer>
      <feMerge>
        <feMergeNode />
        <feMergeNode in="SourceGraphic" />
      </feMerge>
    </filter>
  </defs>
  <g transform="translate(13,2) scale(1.25)" filter="url(#blur)">
    <g class="am-weather-sun" transform="translate(0,14)">
      <line transform="translate(0,6)" y2="3" fill="none" stroke="#ffa500" stroke-linecap="round" stroke-width="1.5" />
      <g transform="rotate(45)">
        <line transform="translate(0,6)" y2="3" fill="none" stroke="#ffa500" stroke-linecap="round" stroke-width="1.5" />
      </g>
      <g transform="rotate(90)">
        <line transform="translate(0,6)" y2="3" fill="none" stroke="#ffa500" stroke-linecap="round" stroke-width="1.5" />
      </g>
      <g transform="rotate(135)">
        <line transform="translate(0,6)" y2="3" fill="none" stroke="#ffa500" stroke-linecap="round" stroke-width="1.5" />
      </g>
      <g transform="scale(-1)">
        <line transform="translate(0,6)" y2="3" fill="none" stroke="#ffa500" stroke-linecap="round" stroke-width="1.5" />
      </g>
      <g transform="rotate(225)">
        <line transform="translate(0,6)" y2="3" fill="none" stroke="#ffa500" stroke-linecap="round" stroke-width="1.5" />
      </g>
      <g transform="rotate(-90)">
        <line transform="translate(0,6)" y2="3" fill="none" stroke="#ffa500" stroke-linecap="round" stroke-width="1.5" />
      </g>
      <g transform="rotate(-45)">
        <line transform="translate(0,6)" y2="3" fill="none" stroke="#ffa500" stroke-linecap="round" stroke-width="1.5" />
      </g>
      <circle r="3" fill="#ffa500" stroke="#ffa500" stroke-width="1.5" />
    </g>
    <g class="am-weather-cloud-2">
      <path transform="translate(-16,-10)"
        d="m38 27c0-3.5-2.8-6.3-6.3-6.3-0.8 0-1.5 0.1-2.1 0.4-0.3-2.6-2.4-4.8-5.1-4.8-2.8 0-5.1 2.3-5.1 5.1 0 0.6 0.1 1.2 0.3 1.8-0.3-0.1-0.6-0.1-0.8-0.1-2.8 0-5.1 2.3-5.1 5.1 0 2.7 2.1 4.9 4.9 5.0h13c3.3-0.4 6-3.1 6-6.2z"
        fill="#91c0f8" stroke="#fff" stroke-linejoin="round" stroke-width="1" />
    </g>
  </g>
</svg>